# xmcd
#
# Track frame offsets:
#	150
#	11828
#	27156
#	43299
#	61730
#	76306
#	92923
#	113294
#	127062
#	140788
#	156130
#	171747
#
# Disc length: 2558 seconds
# Revision: 0
# Processed by: cddbd v1.5.2PL0 Copyright (c) Steve Scherf et al.
# Submitted via: dBpowerAMP V12.0
#
DISCID=a309fc0c
DTITLE=Donella Plane - The Dance
DYEAR=2015
DGENRE=Country
TTITLE0=Australian Summer
TTITLE1=Hey Cowboy
TTITLE2=Remember The Dance
TTITLE3=Sugar Baby Honey Pie
TTITLE4=But I'll Try
TTITLE5=Big Wheels Turning
TTITLE6=Miracle
TTITLE7=Silverton
TTITLE8=D.I.Y (Do It Yourself)
TTITLE9=Shotgun Wedding
TTITLE10=There's Only One Problem
TTITLE11=Baby Be With Me
EXTD=
EXTT0=
EXTT1=
EXTT2=
EXTT3=
EXTT4=
EXTT5=
EXTT6=
EXTT7=
EXTT8=
EXTT9=
EXTT10=
EXTT11=
PLAYORDER=
